<svg width="165" height="166" viewBox="0 0 165 166" fill="none" xmlns="http://www.w3.org/2000/svg">
<path d="M164.271 83C164.271 128.84 127.498 166 82.1354 166C36.7733 166 0 128.84 0 83C0 37.1604 36.7733 0 82.1354 0C127.498 0 164.271 37.1604 164.271 83Z" fill="#E5670B"/>
<path d="M61.9355 112.474H103.593V121.459C103.593 126.481 99.5218 130.552 94.5 130.552H72.3498C66.5982 130.552 61.9355 125.889 61.9355 120.138V112.474Z" fill="white"/>
<path d="M103.593 99.8843C103.593 95.6182 105.562 91.6611 108.098 88.2305C112.177 82.7119 114.597 75.8394 114.597 68.3894C114.597 50.1963 100.169 35.4479 82.3712 35.4479C64.5736 35.4479 50.1458 50.1963 50.1458 68.3894C50.1458 76.1113 52.7451 83.2127 57.0979 88.8292C59.8136 92.3333 61.9356 96.4217 61.9356 100.855V107.759H103.593V99.8843Z" fill="white"/>
</svg>
