<svg width="176" height="99" viewBox="0 0 176 99" fill="none" xmlns="http://www.w3.org/2000/svg">
<path d="M53.6 83.8C53.6267 84.3333 53.6933 84.8533 53.8 85.36C53.9333 85.8667 54.0933 86.24 54.28 86.48C54.04 86.72 53.6667 87 53.16 87.32C52.68 87.64 52.12 87.8933 51.48 88.08C50.8667 88.2933 50.2133 88.3867 49.52 88.36C48.48 88.3067 47.64 87.8667 47 87.04C46.3867 86.2133 46.0667 85.1867 46.04 83.96C46.04 83.72 46.04 83.28 46.04 82.64C46.04 81.9733 46.04 81.2667 46.04 80.52C46.04 79.7733 46.04 79.16 46.04 78.68C46.04 78.2267 45.92 77.7867 45.68 77.36C45.4667 76.9333 45.2133 76.68 44.92 76.6C44.52 76.4667 44.1867 76.7067 43.92 77.32C43.8667 77.4533 43.6933 77.7867 43.4 78.32C43.1067 78.8267 42.7733 79.4267 42.4 80.12C42.0533 80.8133 41.72 81.5067 41.4 82.2C41.1067 82.8933 40.9067 83.4933 40.8 84C40.6933 84.48 40.76 84.7733 41 84.88C40.8933 85.1467 40.6933 85.5333 40.4 86.04C40.1333 86.5467 39.68 86.9867 39.04 87.36C38.4267 87.7067 37.5467 87.84 36.4 87.76C35.7867 87.7067 35 87.3333 34.04 86.64C33.08 85.9467 32.16 84.68 31.28 82.84C30.4533 81.08 29.7733 79.8933 29.24 79.28C28.7333 78.64 28.36 78.3467 28.12 78.4C27.9067 78.4267 27.7333 78.5733 27.6 78.84C27.4933 79.1067 27.3867 79.48 27.28 79.96C27.2267 80.2 27.2 80.6 27.2 81.16C27.2 81.72 27.2267 82.3467 27.28 83.04C27.3333 83.7333 27.4267 84.3867 27.56 85C27.72 85.6133 27.92 86.08 28.16 86.4C27.9467 86.5333 27.56 86.76 27 87.08C26.4667 87.4 25.8533 87.6933 25.16 87.96C24.4933 88.2 23.84 88.32 23.2 88.32C22.24 88.2933 21.44 88.04 20.8 87.56C20.16 87.0533 19.7733 86.0667 19.64 84.6C19.6133 84.36 19.6 83.68 19.6 82.56C19.6 81.44 19.6 80.0267 19.6 78.32C19.6 76.6133 19.6 74.7867 19.6 72.84C19.6 70.8667 19.6 68.92 19.6 67C19.6 65.08 19.6 63.32 19.6 61.72C19.6267 60.12 19.64 58.84 19.64 57.88C19.64 56.92 19.64 56.44 19.64 56.44C19.9333 56.3867 20.4267 56.3733 21.12 56.4C21.8133 56.4267 22.5733 56.5333 23.4 56.72C24.2267 56.9067 24.9867 57.2133 25.68 57.64C26.3733 58.04 26.8533 58.6133 27.12 59.36C27.12 59.36 27.24 59.6133 27.48 60.12C27.7467 60.6 28.0933 61.24 28.52 62.04C28.9467 62.8133 29.4 63.6533 29.88 64.56C30.3867 65.4667 30.8667 66.36 31.32 67.24C31.8 68.12 32.2133 68.8933 32.56 69.56C32.9333 70.2267 33.1867 70.6933 33.32 70.96C33.7733 71.7333 34.2 72.2667 34.6 72.56C35.0267 72.8533 35.48 73.0133 35.96 73.04C36.9467 73.04 37.8933 72.28 38.8 70.76C38.9333 70.52 39.2 70.0133 39.6 69.24C40 68.44 40.4667 67.4933 41 66.4C41.5333 65.3067 42.08 64.1867 42.64 63.04C43.2267 61.8933 43.76 60.8267 44.24 59.84C44.72 58.8267 45.1067 58.0133 45.4 57.4C45.72 56.76 45.88 56.44 45.88 56.44C46.0667 56.4133 46.3333 56.4 46.68 56.4C47.0533 56.3733 47.4533 56.3867 47.88 56.44C48.6267 56.4933 49.4133 56.64 50.24 56.88C51.0933 57.12 51.8267 57.4933 52.44 58C53.08 58.5067 53.44 59.1867 53.52 60.04C53.5733 60.4933 53.6133 61.24 53.64 62.28C53.6667 63.2933 53.68 64.5067 53.68 65.92C53.68 67.3067 53.68 68.7867 53.68 70.36C53.68 71.9333 53.6667 73.48 53.64 75C53.64 76.52 53.6267 77.92 53.6 79.2C53.6 80.48 53.6 81.5333 53.6 82.36C53.6 83.16 53.6 83.64 53.6 83.8Z" fill="white"/>
<path d="M79.5706 80.76C79.5973 81.3467 79.6373 82.0667 79.6906 82.92C79.7706 83.7733 79.944 84.6 80.2106 85.4C80.4773 86.2 80.904 86.84 81.4906 87.32C80.824 87.7733 80.144 88.0933 79.4506 88.28C78.7573 88.4933 78.0773 88.5467 77.4106 88.44C77.224 88.3867 77.024 88.32 76.8106 88.24C76.5973 88.1867 76.304 88.1067 75.9306 88C75.3173 87.8133 74.5973 87.7733 73.7706 87.88C72.944 87.9867 72.0773 88.12 71.1706 88.28C70.2906 88.4667 69.424 88.56 68.5706 88.56C67.184 88.56 65.7973 88.32 64.4106 87.84C63.024 87.3333 61.7706 86.56 60.6506 85.52C59.5306 84.48 58.6773 83.16 58.0906 81.56C57.504 79.96 57.3306 78.04 57.5706 75.8C57.7306 74.2533 58.1706 72.84 58.8906 71.56C59.6106 70.2533 60.4906 69.1333 61.5306 68.2C62.5973 67.24 63.7173 66.5067 64.8906 66C66.0906 65.4667 67.2506 65.2133 68.3706 65.24C69.224 65.2667 69.8773 65.2933 70.3306 65.32C70.8106 65.3467 71.424 65.4133 72.1706 65.52C72.624 65.5733 73.1973 65.5067 73.8906 65.32C74.584 65.1333 75.2773 64.9333 75.9706 64.72C76.6906 64.48 77.304 64.36 77.8106 64.36C78.584 64.3333 79.1306 64.36 79.4506 64.44C79.7706 64.4933 80.0373 64.5467 80.2506 64.6C80.0906 65.08 79.9573 65.8 79.8506 66.76C79.744 67.72 79.664 68.8133 79.6106 70.04C79.584 71.24 79.5573 72.4933 79.5306 73.8C79.504 75.1067 79.4906 76.36 79.4906 77.56C79.5173 78.76 79.544 79.8267 79.5706 80.76ZM64.5306 77.08C64.584 78.4133 64.824 79.4533 65.2506 80.2C65.704 80.92 66.2373 81.4267 66.8506 81.72C67.4906 82.0133 68.104 82.16 68.6906 82.16C69.864 82.1867 70.7306 81.7333 71.2906 80.8C71.8506 79.8667 72.1173 78.5733 72.0906 76.92C72.0906 76.4667 72.0373 75.9333 71.9306 75.32C71.8506 74.7067 71.6906 74.1067 71.4506 73.52C71.2373 72.9333 70.9306 72.44 70.5306 72.04C70.1573 71.64 69.664 71.44 69.0506 71.44C67.824 71.44 66.744 71.8933 65.8106 72.8C64.904 73.7067 64.4773 75.1333 64.5306 77.08Z" fill="white"/>
<path d="M101.878 79.72C102.011 79.9333 102.318 80.32 102.798 80.88C103.278 81.44 103.811 82.0533 104.398 82.72C105.011 83.36 105.585 83.9467 106.118 84.48C106.678 84.9867 107.091 85.32 107.358 85.48C106.931 86.44 106.211 87.1733 105.198 87.68C104.211 88.1867 103.118 88.3867 101.918 88.28C100.718 88.2 99.5848 87.76 98.5181 86.96C98.2781 86.7733 97.9315 86.44 97.4781 85.96C97.0515 85.4533 96.6515 84.9467 96.2781 84.44C95.9048 83.9333 95.4781 83.4267 94.9981 82.92C94.5448 82.3867 94.0781 82.1733 93.5981 82.28C93.3581 82.3333 93.1315 82.52 92.9181 82.84C92.7315 83.16 92.6381 83.5867 92.6381 84.12C92.6381 84.5733 92.7315 85.0133 92.9181 85.44C93.1315 85.8667 93.2381 86.08 93.2381 86.08C93.2381 86.08 93.0781 86.2133 92.7581 86.48C92.4648 86.7467 92.0648 87.04 91.5581 87.36C91.0515 87.68 90.5048 87.9067 89.9181 88.04C89.3315 88.1733 88.6915 88.08 87.9981 87.76C87.3315 87.4133 86.7581 86.92 86.2781 86.28C85.7981 85.6133 85.5448 84.88 85.5181 84.08C85.5181 83.8667 85.5048 83.3067 85.4781 82.4C85.4781 81.4667 85.4648 80.32 85.4381 78.96C85.4381 77.5733 85.4381 76.0667 85.4381 74.44C85.4381 72.7867 85.4248 71.1333 85.3981 69.48C85.3981 67.8 85.3848 66.2133 85.3581 64.72C85.3581 63.2 85.3581 61.9067 85.3581 60.84C85.3581 60.1467 85.3048 59.4667 85.1981 58.8C85.0915 58.1333 84.9715 57.5867 84.8381 57.16C84.7315 56.7067 84.6781 56.48 84.6781 56.48C84.9181 56.4267 85.3315 56.4133 85.9181 56.44C86.5315 56.44 87.2115 56.5067 87.9581 56.64C88.7315 56.7467 89.4781 56.9333 90.1981 57.2C90.9448 57.44 91.5715 57.8 92.0781 58.28C92.6115 58.76 92.9181 59.36 92.9981 60.08C93.0248 60.2933 93.0381 60.76 93.0381 61.48C93.0648 62.1733 93.0781 62.9333 93.0781 63.76C93.0781 64.56 93.0648 65.2267 93.0381 65.76C93.0115 66.56 93.1181 67.2267 93.3581 67.76C93.5981 68.2667 93.9315 68.64 94.3581 68.88C94.7848 69.1467 95.2915 69.24 95.8781 69.16C96.4915 69.08 97.1448 68.8533 97.8381 68.48C98.1848 68.2933 98.6781 68 99.3181 67.6C99.9581 67.2 100.611 66.7867 101.278 66.36C101.971 65.9333 102.545 65.5733 102.998 65.28C103.478 64.9867 103.718 64.84 103.718 64.84C103.958 65.0267 104.251 65.4 104.598 65.96C104.945 66.52 105.251 67.16 105.518 67.88C105.785 68.6 105.918 69.3467 105.918 70.12C105.945 70.8667 105.731 71.5333 105.278 72.12C105.198 72.2267 105.038 72.3733 104.798 72.56C104.585 72.7467 104.265 72.9867 103.838 73.28C103.038 73.84 102.465 74.4 102.118 74.96C101.798 75.4933 101.558 76.08 101.398 76.72C101.291 77.2267 101.278 77.7467 101.358 78.28C101.438 78.8133 101.611 79.2933 101.878 79.72Z" fill="white"/>
<path d="M128.744 77.96C129.411 78.4133 129.838 79.0667 130.024 79.92C130.238 80.7467 130.211 81.6533 129.944 82.64C129.704 83.6267 129.211 84.5733 128.464 85.48C127.718 86.36 126.704 87.0933 125.424 87.68C124.171 88.2667 122.651 88.5733 120.864 88.6C119.371 88.6267 117.904 88.44 116.464 88.04C115.051 87.64 113.758 87.0267 112.584 86.2C111.438 85.3733 110.504 84.3067 109.784 83C109.064 81.6933 108.664 80.1333 108.584 78.32C108.558 77.9467 108.558 77.56 108.584 77.16C108.611 76.76 108.638 76.3467 108.664 75.92C108.664 75.8133 108.664 75.7067 108.664 75.6C108.691 75.4933 108.718 75.3867 108.744 75.28C109.011 73.68 109.558 72.2133 110.384 70.88C111.238 69.5467 112.278 68.4133 113.504 67.48C114.731 66.5467 116.038 65.8667 117.424 65.44C118.838 64.9867 120.224 64.8267 121.584 64.96C123.691 65.1733 125.318 65.7333 126.464 66.64C127.638 67.5467 128.398 68.6667 128.744 70C129.118 71.3067 129.131 72.72 128.784 74.24C128.598 74.9867 128.171 75.7333 127.504 76.48C126.864 77.2 126.064 77.8533 125.104 78.44C124.144 79 123.118 79.44 122.024 79.76C120.958 80.0533 119.918 80.1733 118.904 80.12C118.398 80.0933 118.131 80.2533 118.104 80.6C118.078 80.92 118.224 81.28 118.544 81.68C118.864 82.0533 119.291 82.3067 119.824 82.44C121.078 82.7067 122.251 82.72 123.344 82.48C124.464 82.2133 125.318 81.8533 125.904 81.4C126.384 81.0267 126.891 80.5333 127.424 79.92C127.958 79.28 128.398 78.6267 128.744 77.96ZM119.984 73.92C120.598 73.8667 121.131 73.68 121.584 73.36C122.064 73.0133 122.304 72.6533 122.304 72.28C122.331 71.7467 122.198 71.32 121.904 71C121.638 70.6533 121.171 70.4933 120.504 70.52C119.758 70.5467 119.038 70.6533 118.344 70.84C117.651 71.0267 117.238 71.4133 117.104 72C117.024 72.4 117.144 72.7467 117.464 73.04C117.784 73.3333 118.184 73.56 118.664 73.72C119.144 73.8533 119.584 73.92 119.984 73.92Z" fill="white"/>
<path d="M146.229 64.84C146.762 64.7067 147.256 64.84 147.709 65.24C148.162 65.64 148.562 66.1867 148.909 66.88C149.282 67.5467 149.589 68.24 149.829 68.96C150.069 69.6533 150.256 70.24 150.389 70.72C150.522 71.2 150.589 71.44 150.589 71.44C150.589 71.44 150.269 71.5067 149.629 71.64C149.016 71.7467 148.242 71.9733 147.309 72.32C146.402 72.64 145.496 73.1333 144.589 73.8C144.056 74.2 143.549 74.68 143.069 75.24C142.589 75.8 142.176 76.52 141.829 77.4C141.482 78.2533 141.229 79.3867 141.069 80.8C140.989 81.52 140.976 82.2667 141.029 83.04C141.082 83.8133 141.109 84.4667 141.109 85C141.136 85.48 141.202 85.8267 141.309 86.04C141.442 86.2267 141.549 86.3867 141.629 86.52C141.282 86.84 140.642 87.2 139.709 87.6C138.802 87.9733 137.802 88.16 136.709 88.16C135.642 88.16 134.856 87.8133 134.349 87.12C133.842 86.4267 133.589 85.4667 133.589 84.24C133.589 83.9467 133.576 83.3067 133.549 82.32C133.549 81.3067 133.536 80.0933 133.509 78.68C133.509 77.2667 133.496 75.8 133.469 74.28C133.469 72.76 133.456 71.3467 133.429 70.04C133.429 68.7067 133.416 67.6267 133.389 66.8C133.389 65.9733 133.389 65.56 133.389 65.56C133.656 65.5067 134.109 65.4667 134.749 65.44C135.416 65.4133 136.136 65.44 136.909 65.52C137.682 65.6 138.402 65.7867 139.069 66.08C139.389 66.2133 139.816 66.3467 140.349 66.48C140.909 66.5867 141.442 66.64 141.949 66.64C142.482 66.64 142.869 66.56 143.109 66.4C143.616 66.0267 144.122 65.7067 144.629 65.44C145.162 65.1733 145.696 64.9733 146.229 64.84Z" fill="white"/>
<path d="M12.96 36.8V13.2H15.36V36.8H12.96ZM17.56 39.04V10.96H10.76V39.04H17.56ZM9.76 40.04V9.96H18.56L22.44 14.08V43.92H13.88L9.76 40.04Z" fill="white"/>
<path d="M49.0681 34.36C50.6148 34.36 52.0681 34.2 53.4281 33.88C54.7881 33.56 55.9615 33.0267 56.9481 32.28C57.9615 31.5333 58.7481 30.5733 59.3081 29.4C59.8948 28.2 60.1881 26.7333 60.1881 25C60.1881 23.2667 59.8948 21.8133 59.3081 20.64C58.7481 19.44 57.9615 18.4667 56.9481 17.72C55.9615 16.9733 54.7881 16.44 53.4281 16.12C52.0681 15.8 50.6148 15.64 49.0681 15.64H34.8281V34.36H49.0681ZM49.0681 17.88C50.2681 17.88 51.4015 18 52.4681 18.24C53.5615 18.4533 54.5081 18.84 55.3081 19.4C56.1348 19.96 56.7881 20.6933 57.2681 21.6C57.7748 22.5067 58.0281 23.64 58.0281 25C58.0281 26.36 57.7881 27.5067 57.3081 28.44C56.8281 29.3467 56.1748 30.08 55.3481 30.64C54.5215 31.1733 53.5615 31.56 52.4681 31.8C51.4015 32.0133 50.2681 32.12 49.0681 32.12H36.9881V17.88H49.0681ZM49.0681 13.2C51.0148 13.2 52.8148 13.4133 54.4681 13.84C56.1215 14.24 57.5615 14.92 58.7881 15.88C60.0148 16.8133 60.9748 18.0267 61.6681 19.52C62.3615 21.0133 62.7081 22.84 62.7081 25C62.7081 27.16 62.3615 28.9867 61.6681 30.48C60.9748 31.9733 60.0148 33.2 58.7881 34.16C57.5615 35.0933 56.1215 35.7733 54.4681 36.2C52.8148 36.6 51.0148 36.8 49.0681 36.8H32.3881V13.2H49.0681ZM49.0681 39.04C51.3881 39.04 53.5081 38.7867 55.4281 38.28C57.3748 37.7733 59.0415 36.96 60.4281 35.84C61.8415 34.72 62.9348 33.2667 63.7081 31.48C64.5081 29.6933 64.9081 27.5333 64.9081 25C64.9081 22.4667 64.5081 20.3067 63.7081 18.52C62.9348 16.7333 61.8415 15.28 60.4281 14.16C59.0415 13.04 57.3748 12.2267 55.4281 11.72C53.5081 11.2133 51.3881 10.96 49.0681 10.96H30.1881V39.04H49.0681ZM29.1881 9.96H49.0681C50.5881 9.96 52.0548 10.04 53.4681 10.2C54.8815 10.3333 56.2681 10.6533 57.6281 11.16C59.0148 11.6667 60.3881 12.4133 61.7481 13.4C63.1348 14.3867 64.5481 15.72 65.9881 17.4C67.1881 18.6 68.1215 20.24 68.7881 22.32C69.4548 24.3733 69.7881 26.6 69.7881 29C69.7881 31.6933 69.3748 33.9867 68.5481 35.88C67.7215 37.7733 66.5615 39.3067 65.0681 40.48C63.6015 41.68 61.8415 42.5467 59.7881 43.08C57.7348 43.64 55.4948 43.92 53.0681 43.92H33.3081L29.1881 40.04V9.96ZM41.8681 31.12H49.0681C50.1348 31.12 51.1481 31.0267 52.1081 30.84C53.0681 30.6267 53.9081 30.2933 54.6281 29.84C55.3748 29.36 55.9615 28.7333 56.3881 27.96C56.8148 27.16 57.0281 26.1733 57.0281 25C57.0281 24.4133 56.9615 23.8267 56.8281 23.24C55.6548 22.92 54.4015 22.76 53.0681 22.76H41.8681V31.12Z" fill="white"/>
<path d="M81.0334 23.8H101.393V26.2H81.0334V34.36H105.553V36.8H78.5534V13.2H105.513V15.64H81.0334V23.8ZM83.2334 17.88H107.753V10.96H76.3134V39.04H107.793V32.12H83.2334V28.4H103.593V21.6H83.2334V17.88ZM75.3134 40.04V9.96H108.753L112.633 14.08V22.76H106.513L108.473 24.72V31.12L112.673 35.24V43.92H79.4334L75.3134 40.04Z" fill="white"/>
<path d="M146.117 28.12L137.677 16.16L129.037 28.12H146.117ZM141.797 25.96H133.317L137.597 19.96L141.797 25.96ZM152.077 36.8L147.757 30.6H127.317C126.571 31.6133 125.837 32.6533 125.117 33.72C124.424 34.76 123.704 35.7867 122.957 36.8H119.757C122.584 32.8267 125.397 28.8933 128.197 25C131.024 21.1067 133.837 17.1733 136.637 13.2H138.557L155.077 36.8H152.077ZM135.557 10.96L115.557 39.04H124.037L128.437 32.84H146.517L150.877 39.04H159.357L139.757 10.96H135.557ZM144.237 14.08L165.037 43.92H154.397L150.357 40.04L148.717 37.72H132.917C132.597 38.2 132.237 38.7067 131.837 39.24C131.464 39.7733 131.077 40.3067 130.677 40.84C130.304 41.4 129.931 41.9333 129.557 42.44C129.184 42.9733 128.837 43.4667 128.517 43.92H117.837L113.597 40.04L135.037 9.96H140.277L144.237 14.08Z" fill="white"/>
</svg>
