<svg width="295" height="152" viewBox="0 0 295 152" fill="none" xmlns="http://www.w3.org/2000/svg">
<path d="M0 10C0 4.47715 4.47715 0 10 0H285C290.523 0 295 4.47715 295 10V142C295 147.523 290.523 152 285 152H10C4.47715 152 0 147.523 0 142V10Z" fill="#E5670B"/>
<path d="M112.6 110.8C112.627 111.333 112.693 111.853 112.8 112.36C112.933 112.867 113.093 113.24 113.28 113.48C113.04 113.72 112.667 114 112.16 114.32C111.68 114.64 111.12 114.893 110.48 115.08C109.867 115.293 109.213 115.387 108.52 115.36C107.48 115.307 106.64 114.867 106 114.04C105.387 113.213 105.067 112.187 105.04 110.96C105.04 110.72 105.04 110.28 105.04 109.64C105.04 108.973 105.04 108.267 105.04 107.52C105.04 106.773 105.04 106.16 105.04 105.68C105.04 105.227 104.92 104.787 104.68 104.36C104.467 103.933 104.213 103.68 103.92 103.6C103.52 103.467 103.187 103.707 102.92 104.32C102.867 104.453 102.693 104.787 102.4 105.32C102.107 105.827 101.773 106.427 101.4 107.12C101.053 107.813 100.72 108.507 100.4 109.2C100.107 109.893 99.9067 110.493 99.8 111C99.6933 111.48 99.76 111.773 100 111.88C99.8933 112.147 99.6933 112.533 99.4 113.04C99.1333 113.547 98.68 113.987 98.04 114.36C97.4267 114.707 96.5467 114.84 95.4 114.76C94.7867 114.707 94 114.333 93.04 113.64C92.08 112.947 91.16 111.68 90.28 109.84C89.4533 108.08 88.7733 106.893 88.24 106.28C87.7333 105.64 87.36 105.347 87.12 105.4C86.9067 105.427 86.7333 105.573 86.6 105.84C86.4933 106.107 86.3867 106.48 86.28 106.96C86.2267 107.2 86.2 107.6 86.2 108.16C86.2 108.72 86.2267 109.347 86.28 110.04C86.3333 110.733 86.4267 111.387 86.56 112C86.72 112.613 86.92 113.08 87.16 113.4C86.9467 113.533 86.56 113.76 86 114.08C85.4667 114.4 84.8533 114.693 84.16 114.96C83.4933 115.2 82.84 115.32 82.2 115.32C81.24 115.293 80.44 115.04 79.8 114.56C79.16 114.053 78.7733 113.067 78.64 111.6C78.6133 111.36 78.6 110.68 78.6 109.56C78.6 108.44 78.6 107.027 78.6 105.32C78.6 103.613 78.6 101.787 78.6 99.84C78.6 97.8667 78.6 95.92 78.6 94C78.6 92.08 78.6 90.32 78.6 88.72C78.6267 87.12 78.64 85.84 78.64 84.88C78.64 83.92 78.64 83.44 78.64 83.44C78.9333 83.3867 79.4267 83.3733 80.12 83.4C80.8133 83.4267 81.5733 83.5333 82.4 83.72C83.2267 83.9067 83.9867 84.2133 84.68 84.64C85.3733 85.04 85.8533 85.6133 86.12 86.36C86.12 86.36 86.24 86.6133 86.48 87.12C86.7467 87.6 87.0933 88.24 87.52 89.04C87.9467 89.8133 88.4 90.6533 88.88 91.56C89.3867 92.4667 89.8667 93.36 90.32 94.24C90.8 95.12 91.2133 95.8933 91.56 96.56C91.9333 97.2267 92.1867 97.6933 92.32 97.96C92.7733 98.7333 93.2 99.2667 93.6 99.56C94.0267 99.8533 94.48 100.013 94.96 100.04C95.9467 100.04 96.8933 99.28 97.8 97.76C97.9333 97.52 98.2 97.0133 98.6 96.24C99 95.44 99.4667 94.4933 100 93.4C100.533 92.3067 101.08 91.1867 101.64 90.04C102.227 88.8933 102.76 87.8267 103.24 86.84C103.72 85.8267 104.107 85.0133 104.4 84.4C104.72 83.76 104.88 83.44 104.88 83.44C105.067 83.4133 105.333 83.4 105.68 83.4C106.053 83.3733 106.453 83.3867 106.88 83.44C107.627 83.4933 108.413 83.64 109.24 83.88C110.093 84.12 110.827 84.4933 111.44 85C112.08 85.5067 112.44 86.1867 112.52 87.04C112.573 87.4933 112.613 88.24 112.64 89.28C112.667 90.2933 112.68 91.5067 112.68 92.92C112.68 94.3067 112.68 95.7867 112.68 97.36C112.68 98.9333 112.667 100.48 112.64 102C112.64 103.52 112.627 104.92 112.6 106.2C112.6 107.48 112.6 108.533 112.6 109.36C112.6 110.16 112.6 110.64 112.6 110.8Z" fill="white"/>
<path d="M138.571 107.76C138.597 108.347 138.637 109.067 138.691 109.92C138.771 110.773 138.944 111.6 139.211 112.4C139.477 113.2 139.904 113.84 140.491 114.32C139.824 114.773 139.144 115.093 138.451 115.28C137.757 115.493 137.077 115.547 136.411 115.44C136.224 115.387 136.024 115.32 135.811 115.24C135.597 115.187 135.304 115.107 134.931 115C134.317 114.813 133.597 114.773 132.771 114.88C131.944 114.987 131.077 115.12 130.171 115.28C129.291 115.467 128.424 115.56 127.571 115.56C126.184 115.56 124.797 115.32 123.411 114.84C122.024 114.333 120.771 113.56 119.651 112.52C118.531 111.48 117.677 110.16 117.091 108.56C116.504 106.96 116.331 105.04 116.571 102.8C116.731 101.253 117.171 99.84 117.891 98.56C118.611 97.2533 119.491 96.1333 120.531 95.2C121.597 94.24 122.717 93.5067 123.891 93C125.091 92.4667 126.251 92.2133 127.371 92.24C128.224 92.2667 128.877 92.2933 129.331 92.32C129.811 92.3467 130.424 92.4133 131.171 92.52C131.624 92.5733 132.197 92.5067 132.891 92.32C133.584 92.1333 134.277 91.9333 134.971 91.72C135.691 91.48 136.304 91.36 136.811 91.36C137.584 91.3333 138.131 91.36 138.451 91.44C138.771 91.4933 139.037 91.5467 139.251 91.6C139.091 92.08 138.957 92.8 138.851 93.76C138.744 94.72 138.664 95.8133 138.611 97.04C138.584 98.24 138.557 99.4933 138.531 100.8C138.504 102.107 138.491 103.36 138.491 104.56C138.517 105.76 138.544 106.827 138.571 107.76ZM123.531 104.08C123.584 105.413 123.824 106.453 124.251 107.2C124.704 107.92 125.237 108.427 125.851 108.72C126.491 109.013 127.104 109.16 127.691 109.16C128.864 109.187 129.731 108.733 130.291 107.8C130.851 106.867 131.117 105.573 131.091 103.92C131.091 103.467 131.037 102.933 130.931 102.32C130.851 101.707 130.691 101.107 130.451 100.52C130.237 99.9333 129.931 99.44 129.531 99.04C129.157 98.64 128.664 98.44 128.051 98.44C126.824 98.44 125.744 98.8933 124.811 99.8C123.904 100.707 123.477 102.133 123.531 104.08Z" fill="white"/>
<path d="M160.878 106.72C161.011 106.933 161.318 107.32 161.798 107.88C162.278 108.44 162.811 109.053 163.398 109.72C164.011 110.36 164.585 110.947 165.118 111.48C165.678 111.987 166.091 112.32 166.358 112.48C165.931 113.44 165.211 114.173 164.198 114.68C163.211 115.187 162.118 115.387 160.918 115.28C159.718 115.2 158.585 114.76 157.518 113.96C157.278 113.773 156.931 113.44 156.478 112.96C156.051 112.453 155.651 111.947 155.278 111.44C154.905 110.933 154.478 110.427 153.998 109.92C153.545 109.387 153.078 109.173 152.598 109.28C152.358 109.333 152.131 109.52 151.918 109.84C151.731 110.16 151.638 110.587 151.638 111.12C151.638 111.573 151.731 112.013 151.918 112.44C152.131 112.867 152.238 113.08 152.238 113.08C152.238 113.08 152.078 113.213 151.758 113.48C151.465 113.747 151.065 114.04 150.558 114.36C150.051 114.68 149.505 114.907 148.918 115.04C148.331 115.173 147.691 115.08 146.998 114.76C146.331 114.413 145.758 113.92 145.278 113.28C144.798 112.613 144.545 111.88 144.518 111.08C144.518 110.867 144.505 110.307 144.478 109.4C144.478 108.467 144.465 107.32 144.438 105.96C144.438 104.573 144.438 103.067 144.438 101.44C144.438 99.7867 144.425 98.1333 144.398 96.48C144.398 94.8 144.385 93.2133 144.358 91.72C144.358 90.2 144.358 88.9067 144.358 87.84C144.358 87.1467 144.305 86.4667 144.198 85.8C144.091 85.1333 143.971 84.5867 143.838 84.16C143.731 83.7067 143.678 83.48 143.678 83.48C143.918 83.4267 144.331 83.4133 144.918 83.44C145.531 83.44 146.211 83.5067 146.958 83.64C147.731 83.7467 148.478 83.9333 149.198 84.2C149.945 84.44 150.571 84.8 151.078 85.28C151.611 85.76 151.918 86.36 151.998 87.08C152.025 87.2933 152.038 87.76 152.038 88.48C152.065 89.1733 152.078 89.9333 152.078 90.76C152.078 91.56 152.065 92.2267 152.038 92.76C152.011 93.56 152.118 94.2267 152.358 94.76C152.598 95.2667 152.931 95.64 153.358 95.88C153.785 96.1467 154.291 96.24 154.878 96.16C155.491 96.08 156.145 95.8533 156.838 95.48C157.185 95.2933 157.678 95 158.318 94.6C158.958 94.2 159.611 93.7867 160.278 93.36C160.971 92.9333 161.545 92.5733 161.998 92.28C162.478 91.9867 162.718 91.84 162.718 91.84C162.958 92.0267 163.251 92.4 163.598 92.96C163.945 93.52 164.251 94.16 164.518 94.88C164.785 95.6 164.918 96.3467 164.918 97.12C164.945 97.8667 164.731 98.5333 164.278 99.12C164.198 99.2267 164.038 99.3733 163.798 99.56C163.585 99.7467 163.265 99.9867 162.838 100.28C162.038 100.84 161.465 101.4 161.118 101.96C160.798 102.493 160.558 103.08 160.398 103.72C160.291 104.227 160.278 104.747 160.358 105.28C160.438 105.813 160.611 106.293 160.878 106.72Z" fill="white"/>
<path d="M187.744 104.96C188.411 105.413 188.838 106.067 189.024 106.92C189.238 107.747 189.211 108.653 188.944 109.64C188.704 110.627 188.211 111.573 187.464 112.48C186.718 113.36 185.704 114.093 184.424 114.68C183.171 115.267 181.651 115.573 179.864 115.6C178.371 115.627 176.904 115.44 175.464 115.04C174.051 114.64 172.758 114.027 171.584 113.2C170.438 112.373 169.504 111.307 168.784 110C168.064 108.693 167.664 107.133 167.584 105.32C167.558 104.947 167.558 104.56 167.584 104.16C167.611 103.76 167.638 103.347 167.664 102.92C167.664 102.813 167.664 102.707 167.664 102.6C167.691 102.493 167.718 102.387 167.744 102.28C168.011 100.68 168.558 99.2133 169.384 97.88C170.238 96.5467 171.278 95.4133 172.504 94.48C173.731 93.5467 175.038 92.8667 176.424 92.44C177.838 91.9867 179.224 91.8267 180.584 91.96C182.691 92.1733 184.318 92.7333 185.464 93.64C186.638 94.5467 187.398 95.6667 187.744 97C188.118 98.3067 188.131 99.72 187.784 101.24C187.598 101.987 187.171 102.733 186.504 103.48C185.864 104.2 185.064 104.853 184.104 105.44C183.144 106 182.118 106.44 181.024 106.76C179.958 107.053 178.918 107.173 177.904 107.12C177.398 107.093 177.131 107.253 177.104 107.6C177.078 107.92 177.224 108.28 177.544 108.68C177.864 109.053 178.291 109.307 178.824 109.44C180.078 109.707 181.251 109.72 182.344 109.48C183.464 109.213 184.318 108.853 184.904 108.4C185.384 108.027 185.891 107.533 186.424 106.92C186.958 106.28 187.398 105.627 187.744 104.96ZM178.984 100.92C179.598 100.867 180.131 100.68 180.584 100.36C181.064 100.013 181.304 99.6533 181.304 99.28C181.331 98.7467 181.198 98.32 180.904 98C180.638 97.6533 180.171 97.4933 179.504 97.52C178.758 97.5467 178.038 97.6533 177.344 97.84C176.651 98.0267 176.238 98.4133 176.104 99C176.024 99.4 176.144 99.7467 176.464 100.04C176.784 100.333 177.184 100.56 177.664 100.72C178.144 100.853 178.584 100.92 178.984 100.92Z" fill="white"/>
<path d="M205.229 91.84C205.762 91.7067 206.256 91.84 206.709 92.24C207.162 92.64 207.562 93.1867 207.909 93.88C208.282 94.5467 208.589 95.24 208.829 95.96C209.069 96.6533 209.256 97.24 209.389 97.72C209.522 98.2 209.589 98.44 209.589 98.44C209.589 98.44 209.269 98.5067 208.629 98.64C208.016 98.7467 207.242 98.9733 206.309 99.32C205.402 99.64 204.496 100.133 203.589 100.8C203.056 101.2 202.549 101.68 202.069 102.24C201.589 102.8 201.176 103.52 200.829 104.4C200.482 105.253 200.229 106.387 200.069 107.8C199.989 108.52 199.976 109.267 200.029 110.04C200.082 110.813 200.109 111.467 200.109 112C200.136 112.48 200.202 112.827 200.309 113.04C200.442 113.227 200.549 113.387 200.629 113.52C200.282 113.84 199.642 114.2 198.709 114.6C197.802 114.973 196.802 115.16 195.709 115.16C194.642 115.16 193.856 114.813 193.349 114.12C192.842 113.427 192.589 112.467 192.589 111.24C192.589 110.947 192.576 110.307 192.549 109.32C192.549 108.307 192.536 107.093 192.509 105.68C192.509 104.267 192.496 102.8 192.469 101.28C192.469 99.76 192.456 98.3467 192.429 97.04C192.429 95.7067 192.416 94.6267 192.389 93.8C192.389 92.9733 192.389 92.56 192.389 92.56C192.656 92.5067 193.109 92.4667 193.749 92.44C194.416 92.4133 195.136 92.44 195.909 92.52C196.682 92.6 197.402 92.7867 198.069 93.08C198.389 93.2133 198.816 93.3467 199.349 93.48C199.909 93.5867 200.442 93.64 200.949 93.64C201.482 93.64 201.869 93.56 202.109 93.4C202.616 93.0267 203.122 92.7067 203.629 92.44C204.162 92.1733 204.696 91.9733 205.229 91.84Z" fill="white"/>
<path d="M71.96 63.8V40.2H74.36V63.8H71.96ZM76.56 66.04V37.96H69.76V66.04H76.56ZM68.76 67.04V36.96H77.56L81.44 41.08V70.92H72.88L68.76 67.04Z" fill="white"/>
<path d="M108.068 61.36C109.615 61.36 111.068 61.2 112.428 60.88C113.788 60.56 114.961 60.0267 115.948 59.28C116.961 58.5333 117.748 57.5733 118.308 56.4C118.895 55.2 119.188 53.7333 119.188 52C119.188 50.2667 118.895 48.8133 118.308 47.64C117.748 46.44 116.961 45.4667 115.948 44.72C114.961 43.9733 113.788 43.44 112.428 43.12C111.068 42.8 109.615 42.64 108.068 42.64H93.8281V61.36H108.068ZM108.068 44.88C109.268 44.88 110.401 45 111.468 45.24C112.561 45.4533 113.508 45.84 114.308 46.4C115.135 46.96 115.788 47.6933 116.268 48.6C116.775 49.5067 117.028 50.64 117.028 52C117.028 53.36 116.788 54.5067 116.308 55.44C115.828 56.3467 115.175 57.08 114.348 57.64C113.521 58.1733 112.561 58.56 111.468 58.8C110.401 59.0133 109.268 59.12 108.068 59.12H95.9881V44.88H108.068ZM108.068 40.2C110.015 40.2 111.815 40.4133 113.468 40.84C115.121 41.24 116.561 41.92 117.788 42.88C119.015 43.8133 119.975 45.0267 120.668 46.52C121.361 48.0133 121.708 49.84 121.708 52C121.708 54.16 121.361 55.9867 120.668 57.48C119.975 58.9733 119.015 60.2 117.788 61.16C116.561 62.0933 115.121 62.7733 113.468 63.2C111.815 63.6 110.015 63.8 108.068 63.8H91.3881V40.2H108.068ZM108.068 66.04C110.388 66.04 112.508 65.7867 114.428 65.28C116.375 64.7733 118.041 63.96 119.428 62.84C120.841 61.72 121.935 60.2667 122.708 58.48C123.508 56.6933 123.908 54.5333 123.908 52C123.908 49.4667 123.508 47.3067 122.708 45.52C121.935 43.7333 120.841 42.28 119.428 41.16C118.041 40.04 116.375 39.2267 114.428 38.72C112.508 38.2133 110.388 37.96 108.068 37.96H89.1881V66.04H108.068ZM88.1881 36.96H108.068C109.588 36.96 111.055 37.04 112.468 37.2C113.881 37.3333 115.268 37.6533 116.628 38.16C118.015 38.6667 119.388 39.4133 120.748 40.4C122.135 41.3867 123.548 42.72 124.988 44.4C126.188 45.6 127.121 47.24 127.788 49.32C128.455 51.3733 128.788 53.6 128.788 56C128.788 58.6933 128.375 60.9867 127.548 62.88C126.721 64.7733 125.561 66.3067 124.068 67.48C122.601 68.68 120.841 69.5467 118.788 70.08C116.735 70.64 114.495 70.92 112.068 70.92H92.3081L88.1881 67.04V36.96ZM100.868 58.12H108.068C109.135 58.12 110.148 58.0267 111.108 57.84C112.068 57.6267 112.908 57.2933 113.628 56.84C114.375 56.36 114.961 55.7333 115.388 54.96C115.815 54.16 116.028 53.1733 116.028 52C116.028 51.4133 115.961 50.8267 115.828 50.24C114.655 49.92 113.401 49.76 112.068 49.76H100.868V58.12Z" fill="white"/>
<path d="M140.033 50.8H160.393V53.2H140.033V61.36H164.553V63.8H137.553V40.2H164.513V42.64H140.033V50.8ZM142.233 44.88H166.753V37.96H135.313V66.04H166.793V59.12H142.233V55.4H162.593V48.6H142.233V44.88ZM134.313 67.04V36.96H167.753L171.633 41.08V49.76H165.513L167.473 51.72V58.12L171.673 62.24V70.92H138.433L134.313 67.04Z" fill="white"/>
<path d="M205.117 55.12L196.677 43.16L188.037 55.12H205.117ZM200.797 52.96H192.317L196.597 46.96L200.797 52.96ZM211.077 63.8L206.757 57.6H186.317C185.571 58.6133 184.837 59.6533 184.117 60.72C183.424 61.76 182.704 62.7867 181.957 63.8H178.757C181.584 59.8267 184.397 55.8933 187.197 52C190.024 48.1067 192.837 44.1733 195.637 40.2H197.557L214.077 63.8H211.077ZM194.557 37.96L174.557 66.04H183.037L187.437 59.84H205.517L209.877 66.04H218.357L198.757 37.96H194.557ZM203.237 41.08L224.037 70.92H213.397L209.357 67.04L207.717 64.72H191.917C191.597 65.2 191.237 65.7067 190.837 66.24C190.464 66.7733 190.077 67.3067 189.677 67.84C189.304 68.4 188.931 68.9333 188.557 69.44C188.184 69.9733 187.837 70.4667 187.517 70.92H176.837L172.597 67.04L194.037 36.96H199.277L203.237 41.08Z" fill="white"/>
</svg>
